<svg xmlns="http://www.w3.org/2000/svg" viewBox="0 0 58 58">
  <defs>
    <radialGradient id="hexFill" cx="38%" cy="32%" r="72%">
      <stop offset="0%"   stop-color="#1a4fd8"/>
      <stop offset="55%"  stop-color="#0d2d8a"/>
      <stop offset="100%" stop-color="#060e38"/>
    </radialGradient>
    <linearGradient id="nodeGrad" x1="0%" y1="0%" x2="100%" y2="100%">
      <stop offset="0%"   stop-color="#60aaff"/>
      <stop offset="100%" stop-color="#2d6be4"/>
    </linearGradient>
    <filter id="glow" x="-40%" y="-40%" width="180%" height="180%">
      <feGaussianBlur stdDeviation="1.6" result="blur"/>
      <feMerge><feMergeNode in="blur"/><feMergeNode in="SourceGraphic"/></feMerge>
    </filter>
    <filter id="hexAura" x="-20%" y="-20%" width="140%" height="140%">
      <feGaussianBlur stdDeviation="3.5" result="blur"/>
      <feMerge><feMergeNode in="blur"/><feMergeNode in="SourceGraphic"/></feMerge>
    </filter>
    <filter id="aiGlow" x="-50%" y="-50%" width="200%" height="200%">
      <feGaussianBlur stdDeviation="2.2" result="blur"/>
      <feMerge><feMergeNode in="blur"/><feMergeNode in="SourceGraphic"/></feMerge>
    </filter>
  </defs>

  <!-- Hex outer aura -->
  <polygon points="53,29 41,8 17,8 5,29 17,50 41,50" fill="#2d6be4" opacity="0.2" filter="url(#hexAura)"/>
  <!-- Hex body -->
  <polygon points="53,29 41,8 17,8 5,29 17,50 41,50" fill="url(#hexFill)"/>
  <!-- Hex border -->
  <polygon points="53,29 41,8 17,8 5,29 17,50 41,50" fill="none" stroke="#f0c040" stroke-width="1.6" stroke-linejoin="round"/>
  <!-- Top shine -->
  <polygon points="17,8 41,8 29,21" fill="#ffffff" opacity="0.07"/>

  <!-- Neural network connections: input → hidden -->
  <line x1="14" y1="21" x2="28" y2="16" stroke="#90b8ff" stroke-width="0.9" opacity="0.45"/>
  <line x1="14" y1="21" x2="28" y2="29" stroke="#90b8ff" stroke-width="0.9" opacity="0.45"/>
  <line x1="14" y1="21" x2="28" y2="42" stroke="#90b8ff" stroke-width="0.9" opacity="0.25"/>
  <line x1="14" y1="37" x2="28" y2="16" stroke="#90b8ff" stroke-width="0.9" opacity="0.25"/>
  <line x1="14" y1="37" x2="28" y2="29" stroke="#90b8ff" stroke-width="0.9" opacity="0.45"/>
  <line x1="14" y1="37" x2="28" y2="42" stroke="#90b8ff" stroke-width="0.9" opacity="0.45"/>
  <!-- hidden → output (gold) -->
  <line x1="28" y1="16" x2="42" y2="29" stroke="#f0c040" stroke-width="1"   opacity="0.55"/>
  <line x1="28" y1="29" x2="42" y2="29" stroke="#f0c040" stroke-width="1"   opacity="0.7"/>
  <line x1="28" y1="42" x2="42" y2="29" stroke="#f0c040" stroke-width="1"   opacity="0.55"/>

  <!-- Input nodes (blue) -->
  <circle cx="14" cy="21" r="2.6" fill="url(#nodeGrad)" filter="url(#glow)"/>
  <circle cx="14" cy="37" r="2.6" fill="url(#nodeGrad)" filter="url(#glow)"/>
  <!-- Hidden nodes -->
  <circle cx="28" cy="16" r="2.2" fill="#7ab8ff" opacity="0.9"/>
  <circle cx="28" cy="29" r="2.2" fill="#7ab8ff" opacity="0.9"/>
  <circle cx="28" cy="42" r="2.2" fill="#7ab8ff" opacity="0.9"/>
  <!-- Output node (gold) -->
  <circle cx="42" cy="29" r="3.4" fill="#f0c040" filter="url(#aiGlow)"/>
  <circle cx="42" cy="29" r="1.6" fill="#ffffff"/>

  <!-- Circuit ticks at hex vertices -->
  <line x1="41" y1="3"  x2="41" y2="8"  stroke="#f0c040" stroke-width="1.8" stroke-linecap="round"/>
  <circle cx="41" cy="3"  r="2" fill="#f0c040"/>
  <line x1="0"  y1="29" x2="5"  y2="29" stroke="#f0c040" stroke-width="1.8" stroke-linecap="round"/>
  <circle cx="0"  cy="29" r="2" fill="#f0c040"/>
  <line x1="41" y1="50" x2="41" y2="55" stroke="#f0c040" stroke-width="1.8" stroke-linecap="round"/>
  <circle cx="41" cy="55" r="2" fill="#f0c040"/>
  <circle cx="53" cy="29" r="1.4" fill="#f0c040" opacity="0.35"/>
  <circle cx="17" cy="8"  r="1.4" fill="#f0c040" opacity="0.35"/>
  <circle cx="17" cy="50" r="1.4" fill="#f0c040" opacity="0.35"/>
</svg>
